<?xml version="1.0" standalone="no"?><!DOCTYPE svg PUBLIC "-//W3C//DTD SVG 1.1//EN" "http://www.w3.org/Graphics/SVG/1.1/DTD/svg11.dtd"><svg t="1760682293979" class="icon" viewBox="0 0 1024 1024" version="1.1" xmlns="http://www.w3.org/2000/svg" p-id="2436" width="288" height="288" xmlns:xlink="http://www.w3.org/1999/xlink"><path d="M407.143863 358.4a40.594286 40.594286 0 0 1 57.197714-0.073143 35.035429 35.035429 0 0 1-0.219428 49.517714L362.746149 508.489143l142.409142 155.428571 97.792-97.133714a45.641143 45.641143 0 0 1 64.365715 0 39.936 39.936 0 0 1-0.292572 56.539429L569.228434 720.457143a60.050286 60.050286 0 0 1 0 91.867428l-78.262857 77.750858a282.112 282.112 0 0 1-178.029714 70.656 224.548571 224.548571 0 0 1-149.577143-49.517715L60.081006 1013.76a35.401143 35.401143 0 0 1-49.737143 0 34.889143 34.889143 0 0 1 0-49.444571l103.204571-102.473143a265.142857 265.142857 0 0 1-49.883428-148.48 233.472 233.472 0 0 1 71.241143-176.566857l78.262857-84.845715a60.928 60.928 0 0 1 92.598857 0l3.437714 3.657143L407.217006 358.4z m-144.091429 147.017143L184.716434 583.168a202.313143 202.313143 0 0 0-49.810285 127.195429c-1.974857 47.542857 16.091429 93.622857 49.737142 127.195428 70.948571 63.634286 178.322286 63.634286 249.270858 0L512.03072 760.393143 263.052434 505.417143zM964.419291 10.24a35.401143 35.401143 0 0 1 49.737143 0l1.316572 1.389714A33.206857 33.206857 0 0 1 1013.059291 58.514286l-52.224 47.177143c31.158857 43.300571 48.493714 95.085714 49.810286 148.406857a233.472 233.472 0 0 1-71.168 176.64l-78.336 77.750857a77.165714 77.165714 0 0 1-49.810286 21.211428 64.877714 64.877714 0 0 1-49.883428-21.211428L505.155291 254.098286a60.050286 60.050286 0 0 1 0-91.867429l78.262858-77.750857a259.291429 259.291429 0 0 1 327.606857-21.211429l53.394285-53.028571z m-74.752 123.684571a186.587429 186.587429 0 0 0-249.270857 0l-78.262857 77.750858 256.292572 247.369142 71.241142-77.750857a154.331429 154.331429 0 0 0 49.737143-120.173714c1.974857-47.542857-16.091429-93.622857-49.737143-127.195429z" fill="#697DFF" p-id="2437"></path><path d="M562.060434 211.675429L711.857006 52.150857l195.510857 34.084572 92.379428 186.368-181.321142 186.441142zM524.245577 738.304l-149.796571 159.597714-195.437715-34.084571L86.631863 677.302857l181.248-186.368z" fill="#697DFF" fill-opacity=".15" p-id="2438"></path></svg>